<mxfile host="app.diagrams.net" agent="Mozilla/5.0 (Windows NT 10.0; Win64; x64) AppleWebKit/537.36 (KHTML, like Gecko) Chrome/127.0.0.0 Safari/537.36" version="24.7.7">
  <diagram name="Página-1" id="yLNrlQIgzzO61cbipYhA">
    <mxGraphModel dx="794" dy="724" grid="1" gridSize="10" guides="1" tooltips="1" connect="1" arrows="1" fold="1" page="1" pageScale="1" pageWidth="827" pageHeight="1169" math="0" shadow="0">
      <root>
        <mxCell id="0" />
        <mxCell id="1" parent="0" />
        <mxCell id="aD_j3xQQdvXOHQCCbrtE-1" value="INICIO" style="ellipse;whiteSpace=wrap;html=1;" vertex="1" parent="1">
          <mxGeometry x="338" y="90" width="120" height="80" as="geometry" />
        </mxCell>
        <mxCell id="aD_j3xQQdvXOHQCCbrtE-3" value="FIM" style="ellipse;whiteSpace=wrap;html=1;" vertex="1" parent="1">
          <mxGeometry x="342" y="715" width="120" height="80" as="geometry" />
        </mxCell>
        <mxCell id="aD_j3xQQdvXOHQCCbrtE-4" value="ler n1" style="shape=parallelogram;perimeter=parallelogramPerimeter;whiteSpace=wrap;html=1;fixedSize=1;" vertex="1" parent="1">
          <mxGeometry x="342" y="360" width="120" height="60" as="geometry" />
        </mxCell>
        <mxCell id="aD_j3xQQdvXOHQCCbrtE-5" value="dobro = n1 * 2" style="rounded=0;whiteSpace=wrap;html=1;" vertex="1" parent="1">
          <mxGeometry x="342" y="480" width="120" height="60" as="geometry" />
        </mxCell>
        <mxCell id="aD_j3xQQdvXOHQCCbrtE-6" value="imprimir resultado" style="shape=parallelogram;perimeter=parallelogramPerimeter;whiteSpace=wrap;html=1;fixedSize=1;" vertex="1" parent="1">
          <mxGeometry x="332" y="590" width="140" height="70" as="geometry" />
        </mxCell>
        <mxCell id="aD_j3xQQdvXOHQCCbrtE-7" value="" style="endArrow=classic;html=1;rounded=0;exitX=0.5;exitY=1;exitDx=0;exitDy=0;entryX=0.5;entryY=0;entryDx=0;entryDy=0;" edge="1" parent="1" source="aD_j3xQQdvXOHQCCbrtE-1" target="aD_j3xQQdvXOHQCCbrtE-12">
          <mxGeometry width="50" height="50" relative="1" as="geometry">
            <mxPoint x="368" y="410" as="sourcePoint" />
            <mxPoint x="478" y="250" as="targetPoint" />
          </mxGeometry>
        </mxCell>
        <mxCell id="aD_j3xQQdvXOHQCCbrtE-8" value="" style="endArrow=classic;html=1;rounded=0;exitX=0.5;exitY=1;exitDx=0;exitDy=0;entryX=0.5;entryY=0;entryDx=0;entryDy=0;" edge="1" parent="1" source="aD_j3xQQdvXOHQCCbrtE-4" target="aD_j3xQQdvXOHQCCbrtE-5">
          <mxGeometry width="50" height="50" relative="1" as="geometry">
            <mxPoint x="372" y="530" as="sourcePoint" />
            <mxPoint x="422" y="480" as="targetPoint" />
          </mxGeometry>
        </mxCell>
        <mxCell id="aD_j3xQQdvXOHQCCbrtE-9" value="" style="endArrow=classic;html=1;rounded=0;exitX=0.5;exitY=1;exitDx=0;exitDy=0;entryX=0.5;entryY=0;entryDx=0;entryDy=0;" edge="1" parent="1" source="aD_j3xQQdvXOHQCCbrtE-5" target="aD_j3xQQdvXOHQCCbrtE-6">
          <mxGeometry width="50" height="50" relative="1" as="geometry">
            <mxPoint x="372" y="530" as="sourcePoint" />
            <mxPoint x="422" y="480" as="targetPoint" />
          </mxGeometry>
        </mxCell>
        <mxCell id="aD_j3xQQdvXOHQCCbrtE-10" value="" style="endArrow=classic;html=1;rounded=0;exitX=0.5;exitY=1;exitDx=0;exitDy=0;entryX=0.5;entryY=0;entryDx=0;entryDy=0;" edge="1" parent="1" source="aD_j3xQQdvXOHQCCbrtE-6" target="aD_j3xQQdvXOHQCCbrtE-3">
          <mxGeometry width="50" height="50" relative="1" as="geometry">
            <mxPoint x="372" y="530" as="sourcePoint" />
            <mxPoint x="422" y="480" as="targetPoint" />
          </mxGeometry>
        </mxCell>
        <mxCell id="aD_j3xQQdvXOHQCCbrtE-12" value="var n1 =&amp;nbsp;&lt;div&gt;var dobro = 0&amp;nbsp;&lt;/div&gt;" style="shape=hexagon;perimeter=hexagonPerimeter2;whiteSpace=wrap;html=1;fixedSize=1;" vertex="1" parent="1">
          <mxGeometry x="338" y="230" width="120" height="80" as="geometry" />
        </mxCell>
        <mxCell id="aD_j3xQQdvXOHQCCbrtE-13" value="" style="endArrow=classic;html=1;rounded=0;exitX=0.5;exitY=1;exitDx=0;exitDy=0;entryX=0.467;entryY=0;entryDx=0;entryDy=0;entryPerimeter=0;" edge="1" parent="1" source="aD_j3xQQdvXOHQCCbrtE-12" target="aD_j3xQQdvXOHQCCbrtE-4">
          <mxGeometry width="50" height="50" relative="1" as="geometry">
            <mxPoint x="368" y="510" as="sourcePoint" />
            <mxPoint x="418" y="460" as="targetPoint" />
          </mxGeometry>
        </mxCell>
        <mxCell id="aD_j3xQQdvXOHQCCbrtE-15" value="&lt;p&gt;&lt;span style=&quot;padding: 0px; margin: 0px; position: absolute; cursor: text; transform-origin: 0% 0%; left: 152.294px; top: 92.806px; transform: scaleX(0.812438);&quot; dir=&quot;ltr&quot; role=&quot;presentation&quot;&gt;&lt;span style=&quot;font-size: 24px; background-color: rgb(251, 251, 251);&quot;&gt;&lt;b&gt;ativ&lt;/b&gt;&lt;/span&gt;&lt;span style=&quot;color: rgba(0, 0, 0, 0); font-family: sans-serif; font-size: 28.5626px; white-space: pre; background-color: rgb(255, 255, 255);&quot;&gt;Faça&lt;/span&gt;&lt;/span&gt;&lt;span style=&quot;padding: 0px; margin: 0px; color: rgba(0, 0, 0, 0); position: absolute; white-space: pre; cursor: text; transform-origin: 0% 0%; background-color: rgb(255, 255, 255); left: 203.878px; top: 92.806px; font-size: 28.5626px; font-family: sans-serif;&quot; dir=&quot;ltr&quot; role=&quot;presentation&quot;&gt; &lt;/span&gt;&lt;span style=&quot;padding: 0px; margin: 0px; color: rgba(0, 0, 0, 0); position: absolute; white-space: pre; cursor: text; transform-origin: 0% 0%; background-color: rgb(255, 255, 255); left: 222.958px; top: 92.806px; font-size: 28.5626px; font-family: sans-serif; transform: scaleX(0.953182);&quot; dir=&quot;ltr&quot; role=&quot;presentation&quot;&gt;um&lt;/span&gt;&lt;span style=&quot;padding: 0px; margin: 0px; color: rgba(0, 0, 0, 0); position: absolute; white-space: pre; cursor: text; transform-origin: 0% 0%; background-color: rgb(255, 255, 255); left: 260.775px; top: 92.806px; font-size: 28.5626px; font-family: sans-serif;&quot; dir=&quot;ltr&quot; role=&quot;presentation&quot;&gt; &lt;/span&gt;&lt;span style=&quot;padding: 0px; margin: 0px; color: rgba(0, 0, 0, 0); position: absolute; white-space: pre; cursor: text; transform-origin: 0% 0%; background-color: rgb(255, 255, 255); left: 279.826px; top: 92.806px; font-size: 28.5626px; font-family: sans-serif; transform: scaleX(0.959461);&quot; dir=&quot;ltr&quot; role=&quot;presentation&quot;&gt;algoritmo&lt;/span&gt;&lt;span style=&quot;padding: 0px; margin: 0px; color: rgba(0, 0, 0, 0); position: absolute; white-space: pre; cursor: text; transform-origin: 0% 0%; background-color: rgb(255, 255, 255); left: 392.526px; top: 92.806px; font-size: 28.5626px; font-family: sans-serif;&quot; dir=&quot;ltr&quot; role=&quot;presentation&quot;&gt; &lt;/span&gt;&lt;span style=&quot;padding: 0px; margin: 0px; color: rgba(0, 0, 0, 0); position: absolute; white-space: pre; cursor: text; transform-origin: 0% 0%; background-color: rgb(255, 255, 255); left: 411.586px; top: 92.806px; font-size: 28.5626px; font-family: sans-serif; transform: scaleX(0.933744);&quot; dir=&quot;ltr&quot; role=&quot;presentation&quot;&gt;em&lt;/span&gt;&lt;span style=&quot;padding: 0px; margin: 0px; color: rgba(0, 0, 0, 0); position: absolute; white-space: pre; cursor: text; transform-origin: 0% 0%; background-color: rgb(255, 255, 255); left: 448.631px; top: 92.806px; font-size: 28.5626px; font-family: sans-serif;&quot; dir=&quot;ltr&quot; role=&quot;presentation&quot;&gt; &lt;/span&gt;&lt;span style=&quot;padding: 0px; margin: 0px; color: rgba(0, 0, 0, 0); position: absolute; white-space: pre; cursor: text; transform-origin: 0% 0%; background-color: rgb(255, 255, 255); left: 467.654px; top: 92.806px; font-size: 28.5626px; font-family: sans-serif; transform: scaleX(0.919371);&quot; dir=&quot;ltr&quot; role=&quot;presentation&quot;&gt;fluxograma&lt;/span&gt;&lt;span style=&quot;padding: 0px; margin: 0px; color: rgba(0, 0, 0, 0); position: absolute; white-space: pre; cursor: text; transform-origin: 0% 0%; background-color: rgb(255, 255, 255); left: 597.543px; top: 92.806px; font-size: 28.5626px; font-family: sans-serif;&quot; dir=&quot;ltr&quot; role=&quot;presentation&quot;&gt; &lt;/span&gt;&lt;span style=&quot;padding: 0px; margin: 0px; color: rgba(0, 0, 0, 0); position: absolute; white-space: pre; cursor: text; transform-origin: 0% 0%; background-color: rgb(255, 255, 255); left: 616.637px; top: 92.806px; font-size: 28.5626px; font-family: sans-serif; transform: scaleX(0.90682);&quot; dir=&quot;ltr&quot; role=&quot;presentation&quot;&gt;para&lt;/span&gt;&lt;span style=&quot;padding: 0px; margin: 0px; color: rgba(0, 0, 0, 0); position: absolute; white-space: pre; cursor: text; transform-origin: 0% 0%; background-color: rgb(255, 255, 255); left: 668.472px; top: 92.806px; font-size: 28.5626px; font-family: sans-serif;&quot; dir=&quot;ltr&quot; role=&quot;presentation&quot;&gt; &lt;/span&gt;&lt;span style=&quot;padding: 0px; margin: 0px; color: rgba(0, 0, 0, 0); position: absolute; white-space: pre; cursor: text; transform-origin: 0% 0%; background-color: rgb(255, 255, 255); left: 687.586px; top: 92.806px; font-size: 28.5626px; font-family: sans-serif; transform: scaleX(0.969561);&quot; dir=&quot;ltr&quot; role=&quot;presentation&quot;&gt;ler&lt;/span&gt;&lt;span style=&quot;padding: 0px; margin: 0px; color: rgba(0, 0, 0, 0); position: absolute; white-space: pre; cursor: text; transform-origin: 0% 0%; background-color: rgb(255, 255, 255); left: 718.36px; top: 92.806px; font-size: 28.5626px; font-family: sans-serif;&quot; dir=&quot;ltr&quot; role=&quot;presentation&quot;&gt; &lt;/span&gt;&lt;span style=&quot;padding: 0px; margin: 0px; color: rgba(0, 0, 0, 0); position: absolute; white-space: pre; cursor: text; transform-origin: 0% 0%; background-color: rgb(255, 255, 255); left: 737.457px; top: 92.806px; font-size: 28.5626px; font-family: sans-serif; transform: scaleX(0.953182);&quot; dir=&quot;ltr&quot; role=&quot;presentation&quot;&gt;um&lt;/span&gt;&lt;span style=&quot;padding: 0px; margin: 0px; color: rgba(0, 0, 0, 0); position: absolute; white-space: pre; cursor: text; transform-origin: 0% 0%; background-color: rgb(255, 255, 255); left: 775.274px; top: 92.806px; font-size: 28.5626px; font-family: sans-serif;&quot; dir=&quot;ltr&quot; role=&quot;presentation&quot;&gt; &lt;/span&gt;&lt;span style=&quot;padding: 0px; margin: 0px; color: rgba(0, 0, 0, 0); position: absolute; white-space: pre; cursor: text; transform-origin: 0% 0%; background-color: rgb(255, 255, 255); left: 794.325px; top: 92.806px; font-size: 28.5626px; font-family: sans-serif; transform: scaleX(0.943689);&quot; dir=&quot;ltr&quot; role=&quot;presentation&quot;&gt;número&lt;/span&gt;&lt;br style=&quot;padding: 0px; margin: 0px; color: rgba(0, 0, 0, 0); position: absolute; white-space: pre; cursor: text; transform-origin: 0% 0%; font-family: Arial; font-size: 16px; background-color: rgb(255, 255, 255);&quot; role=&quot;presentation&quot;&gt;&lt;span style=&quot;padding: 0px; margin: 0px; color: rgba(0, 0, 0, 0); position: absolute; white-space: pre; cursor: text; transform-origin: 0% 0%; background-color: rgb(255, 255, 255); left: 129.758px; top: 116.77px; font-size: 28.5626px; font-family: sans-serif; transform: scaleX(0.981806);&quot; dir=&quot;ltr&quot; role=&quot;presentation&quot;&gt;qualquer, calcular o dobro desse número e ao final mostrar o&lt;/span&gt;&lt;br style=&quot;padding: 0px; margin: 0px; color: rgba(0, 0, 0, 0); position: absolute; white-space: pre; cursor: text; transform-origin: 0% 0%; font-family: Arial; font-size: 16px; background-color: rgb(255, 255, 255);&quot; role=&quot;presentation&quot;&gt;&lt;span style=&quot;padding: 0px; margin: 0px; color: rgba(0, 0, 0, 0); position: absolute; white-space: pre; cursor: text; transform-origin: 0% 0%; background-color: rgb(255, 255, 255); left: 129.901px; top: 140.734px; font-size: 28.5626px; font-family: sans-serif; transform: scaleX(0.930499);&quot; dir=&quot;ltr&quot; role=&quot;presentation&quot;&gt;resultado.&lt;/span&gt;&lt;/p&gt;" style="text;html=1;whiteSpace=wrap;overflow=hidden;rounded=0;" vertex="1" parent="1">
          <mxGeometry x="200" y="60" width="180" height="120" as="geometry" />
        </mxCell>
        <mxCell id="aD_j3xQQdvXOHQCCbrtE-16" value="&lt;h1 style=&quot;margin-top: 0px;&quot;&gt;&lt;font style=&quot;font-size: 37px;&quot;&gt;ATIVIDADE 3&lt;/font&gt;&lt;/h1&gt;" style="text;html=1;whiteSpace=wrap;overflow=hidden;rounded=0;" vertex="1" parent="1">
          <mxGeometry x="284" y="20" width="236" height="40" as="geometry" />
        </mxCell>
      </root>
    </mxGraphModel>
  </diagram>
</mxfile>
